<?xml version="1.0" encoding="UTF-8" standalone="no"?>
<!DOCTYPE svg PUBLIC "-//W3C//DTD SVG 1.1//EN" "http://www.w3.org/Graphics/SVG/1.1/DTD/svg11.dtd">
<svg width="100%" height="100%" viewBox="0 0 511 511" version="1.1" xmlns="http://www.w3.org/2000/svg" xmlns:xlink="http://www.w3.org/1999/xlink" xml:space="preserve" xmlns:serif="http://www.serif.com/" style="fill-rule:evenodd;clip-rule:evenodd;stroke-linejoin:round;stroke-miterlimit:2;">
    <g transform="matrix(1,0,0,1,-0.5,-1)">
        <g transform="matrix(0.1,1.63755e-20,-1.63755e-20,-0.0998663,8.38427e-17,512)">
            <path d="M2428,5110C2295,5086 2143,5020 2049,4946C1987,4897 383,3445 272,3336C144,3212 76,3100 28,2933L5,2855L5,1790C5,783 6,721 24,655C99,372 310,139 573,49C618,34 684,16 720,11C763,4 1379,0 2570,0C4275,0 4359,1 4446,19C4761,84 5007,330 5092,666L5115,755L5115,2865L5087,2953C5036,3117 4975,3213 4844,3341C4795,3388 4465,3689 4110,4010C3755,4332 3386,4667 3290,4754C3194,4842 3090,4932 3059,4955C2985,5009 2873,5064 2780,5090C2696,5114 2506,5125 2428,5110ZM2694,4564C2715,4554 3127,4187 3609,3750C4297,3125 4491,2944 4516,2902C4584,2788 4581,2852 4578,1740L4575,735L4547,682C4510,612 4450,554 4381,521L4325,495L775,495L708,528C631,566 578,620 541,699L515,755L512,1744C511,2371 513,2753 520,2787C525,2817 537,2857 546,2877C557,2900 672,3011 874,3195C2127,4333 2340,4524 2375,4542C2447,4580 2492,4590 2575,4586C2627,4584 2668,4576 2694,4564Z" style="fill:rgb(214,214,214);fill-rule:nonzero;"/>
        </g>
    </g>
</svg>
