<?xml version="1.0" encoding="UTF-8" standalone="no"?>
<!DOCTYPE svg PUBLIC "-//W3C//DTD SVG 1.1//EN" "http://www.w3.org/Graphics/SVG/1.1/DTD/svg11.dtd">
<svg width="100%" height="100%" viewBox="0 0 512 132" version="1.1" xmlns="http://www.w3.org/2000/svg" xmlns:xlink="http://www.w3.org/1999/xlink" xml:space="preserve" xmlns:serif="http://www.serif.com/" style="fill-rule:evenodd;clip-rule:evenodd;stroke-linejoin:round;stroke-miterlimit:2;">
    <g transform="matrix(1,0,0,1,-0.388778,-112.277)">
        <g transform="matrix(0.1,6.64887e-18,-6.64887e-18,-0.0457078,3.24356e-14,294.982)">
            <path d="M235,3986C173,3966 138,3945 93,3898C31,3834 5,3771 5,3680C5,3531 -79,3625 1213,2333C2505,1041 2411,1125 2560,1125C2709,1125 2615,1041 3907,2333C5200,3625 5115,3531 5115,3680C5114,3736 5109,3768 5092,3806C5063,3869 4991,3942 4925,3972L4875,3995L2575,3997C740,3998 267,3996 235,3986Z" style="fill:white;fill-rule:nonzero;"/>
        </g>
    </g>
</svg>
